<svg xmlns="http://www.w3.org/2000/svg" xmlns:xlink="http://www.w3.org/1999/xlink" xml:space="preserve" viewBox="0 0 1600 900"><linearGradient id="a" x1="800" x2="800" y1="-74.548" y2="-974.548" gradientTransform="translate(0 974.548)" gradientUnits="userSpaceOnUse"><stop offset="0" stop-color="#0058ac"/><stop offset=".02" stop-color="#005fb3"/><stop offset=".08" stop-color="#006dc1"/><stop offset=".15" stop-color="#0075c9"/><stop offset=".28" stop-color="#0078cc"/><stop offset=".55" stop-color="#0074c8"/><stop offset=".78" stop-color="#006abe"/><stop offset="1" stop-color="#0058ac"/><stop offset="1" stop-color="#0058ac"/></linearGradient><path fill="url(#a)" stroke="#231f20" stroke-miterlimit="10" stroke-width=".34" d="M0 0h1600v900H0z"/><defs><path id="b" d="M0 0h1600v900H0z"/></defs><clipPath id="c"><use xlink:href="#b" overflow="visible"/></clipPath><g clip-path="url(#c)"><linearGradient id="d" x1="-214.074" x2="1273.569" y1="215.698" y2="-625.71" gradientTransform="translate(0 974.548)" gradientUnits="userSpaceOnUse"><stop offset=".17" stop-color="#0078cc"/><stop offset=".4" stop-color="#0070c4"/><stop offset=".75" stop-color="#005baf"/><stop offset=".8" stop-color="#0058ac"/></linearGradient><path fill="url(#d)" d="M-1284.3 2130.1c-25.5 0-51-3.2-76.1-9.7-78.2-20.2-145.2-70.6-186.3-140.2-41-69.6-52.8-152.6-32.6-230.8 20.2-78.2 70.6-145.2 140.2-186.3L1034 104.6c69.6-41 152.6-52.8 230.8-32.6 78.2 20.2 145.2 70.6 186.3 140.2 41 69.6 52.8 152.6 32.6 230.8s-70.6 145.2-140.2 186.3l-2473.1 1458.5c-47.3 27.9-100.8 42.3-154.7 42.3z"/><linearGradient id="e" x1="-85.332" x2="759.998" y1="-205.623" y2="-727.92" gradientTransform="translate(0 974.548)" gradientUnits="userSpaceOnUse"><stop offset="0" stop-color="#0058ac"/><stop offset=".07" stop-color="#005baf"/><stop offset=".52" stop-color="#0070c4"/><stop offset=".83" stop-color="#0078cc"/></linearGradient><path fill="url(#e)" d="M-899.2 1401.4c-12.2 0-24.5-1.5-36.6-4.6-37.6-9.7-69.8-33.9-89.5-67.4-19.7-33.4-25.4-73.3-15.6-110.9 9.7-37.6 33.9-69.8 67.4-89.5L214.9 428.1c33.4-19.7 73.3-25.4 110.9-15.6 37.6 9.7 69.8 33.9 89.5 67.4 19.7 33.4 25.4 73.3 15.6 110.9-9.7 37.6-33.9 69.8-67.4 89.5L-825 1381.2c-22.6 13.3-48.3 20.2-74.2 20.2z"/><linearGradient id="f" x1="757.378" x2="1597.741" y1="-17.444" y2="-547.695" gradientTransform="translate(0 974.548)" gradientUnits="userSpaceOnUse"><stop offset="0" stop-color="#0058ac"/><stop offset=".07" stop-color="#005baf"/><stop offset=".52" stop-color="#0070c4"/><stop offset=".83" stop-color="#0078cc"/></linearGradient><path fill="url(#f)" d="M114.4 1484.6c-12.2 0-24.5-1.5-36.6-4.6-37.6-9.7-69.8-33.9-89.5-67.4s-25.4-73.3-15.6-110.9c9.7-37.6 33.9-69.8 67.4-89.5l1188.5-700.9c33.4-19.7 73.3-25.4 110.9-15.6 37.6 9.7 69.8 33.9 89.5 67.4 19.7 33.4 25.4 73.3 15.6 110.9-9.7 37.6-33.9 69.8-67.4 89.5L188.8 1464.4c-22.7 13.4-48.5 20.2-74.4 20.2z"/></g></svg>